<svg fill="#FFFFFF" version="1.1" id="Capa_1" xmlns="http://www.w3.org/2000/svg"
	xmlns:xlink="http://www.w3.org/1999/xlink"
	width="800px" height="800px" viewBox="0 0 108.364 108.364"
	xml:space="preserve">
<g>
	<g>
		<path d="M54.182,0C24.258,0,0,24.258,0,54.182c0,29.924,24.258,54.183,54.182,54.183c29.923,0,54.182-24.259,54.182-54.183
			C108.364,24.258,84.105,0,54.182,0z M25.7,49.219c1.132-1.213,3.018-1.291,4.247-0.143c3.251,3.053,6.589,0.242,6.959-0.088
			c1.105-0.99,2.741-1.012,3.867-0.119c0.133,0.104,0.259,0.223,0.376,0.354c1.106,1.236,1.001,3.135-0.235,4.242
			c-2.664,2.384-9.208,5.484-15.072,0C24.629,52.332,24.567,50.432,25.7,49.219z M76.607,84.43c-1.521,0.66-3.285-0.041-3.943-1.562
			c-2.895-6.689-9.73-11.012-17.422-11.012c-7.867,0-14.746,4.32-17.523,11.006c-0.479,1.152-1.596,1.85-2.771,1.85
			c-0.383,0-0.773-0.074-1.149-0.23c-1.53-0.637-2.255-2.393-1.62-3.922c3.711-8.932,12.764-14.703,23.064-14.703
			c10.085,0,19.085,5.742,22.928,14.629C78.828,82.006,78.128,83.771,76.607,84.43z M82.418,53.43
			c-2.664,2.384-9.208,5.484-15.072,0c-1.211-1.133-1.273-3.033-0.142-4.246s3.019-1.291,4.247-0.143
			c3.251,3.053,6.589,0.242,6.959-0.088c1.105-0.99,2.741-1.012,3.867-0.119c0.133,0.104,0.259,0.223,0.376,0.354
			C83.76,50.424,83.655,52.323,82.418,53.43z"/>
	</g>
</g>
</svg>